# MagicaVoxel @ Ephtracy

# material
mtllib Compost_Ground.mtl
usemtl palette

# normals
vn -1 0 0
vn 1 0 0
vn 0 0 1
vn 0 0 -1
vn 0 -1 0
vn 0 1 0

# texcoords
vt 0.958984 0.5

# verts
v -8 0 4
v -8 0 -5
v -8 1 4
v -8 1 -5
v -7 0 7
v -7 0 4
v -7 0 -5
v -7 0 -6
v -7 1 7
v -7 1 4
v -7 1 2
v -7 1 1
v -7 1 -5
v -7 1 -6
v -7 2 2
v -7 2 1
v -6 0 -6
v -6 0 -7
v -6 1 5
v -6 1 3
v -6 1 1
v -6 1 -5
v -6 1 -6
v -6 1 -7
v -6 2 1
v -6 2 -3
v -6 2 -5
v -6 3 5
v -6 3 3
v -6 3 1
v -6 3 -3
v -5 0 8
v -5 0 7
v -5 1 8
v -5 1 7
v -5 1 6
v -5 1 5
v -5 1 3
v -5 1 1
v -5 1 -5
v -5 1 -6
v -5 2 3
v -5 2 1
v -5 2 -3
v -5 2 -5
v -5 2 -6
v -5 3 6
v -5 3 5
v -5 3 -0
v -5 3 -3
v -5 3 -4
v -5 3 -5
v -5 4 -0
v -5 4 -1
v -5 4 -3
v -5 4 -4
v -5 5 -1
v -5 5 -3
v -4 2 3
v -4 2 1
v -4 3 3
v -4 3 1
v -4 3 -0
v -4 4 3
v -4 4 -0
v -3 2 -5
v -3 2 -6
v -3 3 -5
v -3 3 -6
v -3 4 3
v -3 4 2
v -3 4 1
v -3 4 -1
v -3 4 -3
v -3 4 -4
v -3 5 3
v -3 5 2
v -3 5 1
v -3 5 -1
v -3 5 -3
v -3 5 -4
v -2 3 -4
v -2 3 -5
v -2 4 -4
v -2 4 -5
v -2 5 -2
v -2 5 -3
v -2 6 -2
v -2 6 -3
v -1 1 8
v -1 1 7
v -1 2 8
v -1 2 7
v -1 4 3
v -1 4 1
v -1 5 1
v -1 5 -1
v -1 6 3
v -1 6 -1
v 0 3 4
v 0 3 3
v 0 5 4
v 0 5 3
v 0 6 2
v 0 6 1
v 0 7 2
v 0 7 1
v 1 3 -4
v 1 3 -5
v 1 4 -4
v 1 4 -5
v 1 5 -0
v 1 5 -1
v 1 6 -0
v 1 6 -1
v 3 2 5
v 3 2 4
v 3 3 5
v 3 3 4
v 4 1 -5
v 4 1 -6
v 4 2 -5
v 4 2 -6
v 5 2 2
v 5 2 1
v 5 3 2
v 5 3 1
v -6 1 2
v -6 1 1
v -6 2 2
v -6 2 1
v -4 2 6
v -4 2 5
v -4 3 6
v -4 3 5
v -2 4 3
v -2 4 2
v -2 5 3
v -2 5 2
v -1 3 -4
v -1 3 -5
v -1 4 -4
v -1 4 -5
v -1 5 -2
v -1 5 -3
v -1 6 -2
v -1 6 -3
v 0 1 8
v 0 1 7
v 0 2 8
v 0 2 7
v 0 5 -0
v 0 5 -1
v 0 6 -0
v 0 6 -1
v 1 2 5
v 1 2 4
v 1 3 5
v 1 3 4
v 1 4 -3
v 1 4 -4
v 1 5 -3
v 1 5 -4
v 1 6 2
v 1 6 1
v 1 7 2
v 1 7 1
v 2 5 3
v 2 5 -1
v 2 6 3
v 2 6 -1
v 3 1 -5
v 3 1 -6
v 3 2 4
v 3 2 3
v 3 3 4
v 3 3 3
v 3 3 -1
v 3 3 -5
v 3 3 -6
v 3 4 -1
v 3 4 -3
v 3 5 4
v 3 5 -3
v 4 2 5
v 4 2 4
v 4 2 3
v 4 2 -1
v 4 3 5
v 4 3 4
v 4 3 3
v 4 3 -1
v 4 3 -3
v 4 3 -5
v 4 4 -3
v 4 4 -5
v 5 0 8
v 5 0 7
v 5 1 8
v 5 1 7
v 5 1 6
v 5 1 4
v 5 1 -4
v 5 1 -6
v 5 2 6
v 5 2 4
v 5 2 -1
v 5 2 -4
v 5 2 -5
v 5 2 -6
v 5 3 -3
v 5 3 -5
v 5 4 -1
v 5 4 -3
v 6 0 -6
v 6 0 -7
v 6 1 4
v 6 1 -4
v 6 1 -6
v 6 1 -7
v 6 2 4
v 6 2 2
v 6 2 1
v 6 2 -4
v 6 3 2
v 6 3 1
v 7 0 7
v 7 0 4
v 7 0 -5
v 7 0 -6
v 7 1 7
v 7 1 4
v 7 1 -5
v 7 1 -6
v 8 0 4
v 8 0 -5
v 8 1 4
v 8 1 -5
v -5 0 8
v -5 1 8
v -1 1 8
v -1 2 8
v 0 1 8
v 0 2 8
v 5 0 8
v 5 1 8
v -7 0 7
v -7 1 7
v -5 0 7
v -5 1 7
v 5 0 7
v 5 1 7
v 7 0 7
v 7 1 7
v -5 1 6
v -5 3 6
v -4 2 6
v -4 3 6
v 5 1 6
v 5 2 6
v -6 1 5
v -6 3 5
v -5 1 5
v -5 3 5
v -4 2 5
v -4 3 5
v 1 2 5
v 1 3 5
v 3 2 5
v 3 3 5
v 4 2 5
v 4 3 5
v -8 0 4
v -8 1 4
v -7 0 4
v -7 1 4
v 0 3 4
v 0 5 4
v 1 2 4
v 1 3 4
v 3 2 4
v 3 3 4
v 3 5 4
v 5 1 4
v 5 2 4
v 6 1 4
v 6 2 4
v 7 0 4
v 7 1 4
v 8 0 4
v 8 1 4
v -4 3 3
v -4 4 3
v -3 4 3
v -3 5 3
v -2 4 3
v -2 5 3
v -1 4 3
v -1 6 3
v 0 3 3
v 0 5 3
v 2 5 3
v 2 6 3
v 3 2 3
v 3 3 3
v 4 2 3
v 4 3 3
v -7 1 2
v -7 2 2
v -6 1 2
v -6 2 2
v 0 6 2
v 0 7 2
v 1 6 2
v 1 7 2
v 5 2 2
v 5 3 2
v 6 2 2
v 6 3 2
v -6 1 1
v -6 2 1
v -6 3 1
v -5 1 1
v -5 2 1
v -4 2 1
v -4 3 1
v -3 4 1
v -3 5 1
v -1 4 1
v -1 5 1
v -5 3 -0
v -5 4 -0
v -4 3 -0
v -4 4 -0
v -5 4 -1
v -5 5 -1
v -3 4 -1
v -3 5 -1
v 3 3 -1
v 3 4 -1
v 4 2 -1
v 4 3 -1
v 5 2 -1
v 5 4 -1
v -2 5 -2
v -2 6 -2
v -1 5 -2
v -1 6 -2
v -1 1 7
v -1 2 7
v 0 1 7
v 0 2 7
v 3 2 4
v 3 3 4
v 4 2 4
v 4 3 4
v -6 1 3
v -6 3 3
v -5 1 3
v -5 2 3
v -4 2 3
v -4 3 3
v -3 4 2
v -3 5 2
v -2 4 2
v -2 5 2
v -7 1 1
v -7 2 1
v -6 1 1
v -6 2 1
v 0 6 1
v 0 7 1
v 1 6 1
v 1 7 1
v 5 2 1
v 5 3 1
v 6 2 1
v 6 3 1
v 0 5 -0
v 0 6 -0
v 1 5 -0
v 1 6 -0
v -1 5 -1
v -1 6 -1
v 0 5 -1
v 0 6 -1
v 1 5 -1
v 1 6 -1
v 2 5 -1
v 2 6 -1
v -6 2 -3
v -6 3 -3
v -5 2 -3
v -5 3 -3
v -5 4 -3
v -5 5 -3
v -3 4 -3
v -3 5 -3
v -2 5 -3
v -2 6 -3
v -1 5 -3
v -1 6 -3
v 1 4 -3
v 1 5 -3
v 3 4 -3
v 3 5 -3
v 4 3 -3
v 4 4 -3
v 5 3 -3
v 5 4 -3
v -5 3 -4
v -5 4 -4
v -3 4 -4
v -3 5 -4
v -2 3 -4
v -2 4 -4
v -1 3 -4
v -1 4 -4
v 1 3 -4
v 1 4 -4
v 1 5 -4
v 5 1 -4
v 5 2 -4
v 6 1 -4
v 6 2 -4
v -8 0 -5
v -8 1 -5
v -7 0 -5
v -7 1 -5
v -6 1 -5
v -6 2 -5
v -5 1 -5
v -5 2 -5
v -5 3 -5
v -3 2 -5
v -3 3 -5
v -2 3 -5
v -2 4 -5
v -1 3 -5
v -1 4 -5
v 1 3 -5
v 1 4 -5
v 3 1 -5
v 3 3 -5
v 4 1 -5
v 4 2 -5
v 4 3 -5
v 4 4 -5
v 5 2 -5
v 5 3 -5
v 7 0 -5
v 7 1 -5
v 8 0 -5
v 8 1 -5
v -7 0 -6
v -7 1 -6
v -6 0 -6
v -6 1 -6
v -5 1 -6
v -5 2 -6
v -3 2 -6
v -3 3 -6
v 3 1 -6
v 3 3 -6
v 4 1 -6
v 4 2 -6
v 5 1 -6
v 5 2 -6
v 6 0 -6
v 6 1 -6
v 7 0 -6
v 7 1 -6
v -6 0 -7
v -6 1 -7
v 6 0 -7
v 6 1 -7
v -5 0 8
v 5 0 8
v -7 0 7
v -5 0 7
v 5 0 7
v 7 0 7
v -8 0 4
v -7 0 4
v 7 0 4
v 8 0 4
v -8 0 -5
v -7 0 -5
v 7 0 -5
v 8 0 -5
v -7 0 -6
v -6 0 -6
v 6 0 -6
v 7 0 -6
v -6 0 -7
v 6 0 -7
v -5 1 8
v -1 1 8
v 0 1 8
v 5 1 8
v -7 1 7
v -5 1 7
v -1 1 7
v 0 1 7
v 5 1 7
v 7 1 7
v -5 1 6
v 5 1 6
v -6 1 5
v -5 1 5
v -8 1 4
v -7 1 4
v 5 1 4
v 6 1 4
v 7 1 4
v 8 1 4
v -6 1 3
v -5 1 3
v -7 1 2
v -6 1 2
v -7 1 1
v -6 1 1
v -5 1 1
v 5 1 -4
v 6 1 -4
v -8 1 -5
v -7 1 -5
v -6 1 -5
v -5 1 -5
v 3 1 -5
v 4 1 -5
v 7 1 -5
v 8 1 -5
v -7 1 -6
v -6 1 -6
v -5 1 -6
v 3 1 -6
v 4 1 -6
v 5 1 -6
v 6 1 -6
v 7 1 -6
v -6 1 -7
v 6 1 -7
v -1 2 8
v 0 2 8
v -1 2 7
v 0 2 7
v -4 2 6
v 5 2 6
v -4 2 5
v 1 2 5
v 3 2 5
v 4 2 5
v 1 2 4
v 3 2 4
v 4 2 4
v 5 2 4
v 6 2 4
v -5 2 3
v -4 2 3
v 3 2 3
v 4 2 3
v -7 2 2
v -6 2 2
v 5 2 2
v 6 2 2
v -7 2 1
v -6 2 1
v -5 2 1
v -4 2 1
v 5 2 1
v 6 2 1
v 4 2 -1
v 5 2 -1
v -6 2 -3
v -5 2 -3
v 5 2 -4
v 6 2 -4
v -6 2 -5
v -5 2 -5
v -3 2 -5
v 4 2 -5
v 5 2 -5
v -5 2 -6
v -3 2 -6
v 4 2 -6
v 5 2 -6
v -5 3 6
v -4 3 6
v -6 3 5
v -5 3 5
v -4 3 5
v 1 3 5
v 3 3 5
v 4 3 5
v 0 3 4
v 1 3 4
v 3 3 4
v 4 3 4
v -6 3 3
v -4 3 3
v 0 3 3
v 3 3 3
v 4 3 3
v 5 3 2
v 6 3 2
v -6 3 1
v -4 3 1
v 5 3 1
v 6 3 1
v -5 3 -0
v -4 3 -0
v 3 3 -1
v 4 3 -1
v -6 3 -3
v -5 3 -3
v 4 3 -3
v 5 3 -3
v -5 3 -4
v -2 3 -4
v -1 3 -4
v 1 3 -4
v -5 3 -5
v -3 3 -5
v -2 3 -5
v -1 3 -5
v 1 3 -5
v 3 3 -5
v 4 3 -5
v 5 3 -5
v -3 3 -6
v 3 3 -6
v -4 4 3
v -3 4 3
v -2 4 3
v -1 4 3
v -3 4 2
v -2 4 2
v -3 4 1
v -1 4 1
v -5 4 -0
v -4 4 -0
v -5 4 -1
v -3 4 -1
v 3 4 -1
v 5 4 -1
v -5 4 -3
v -3 4 -3
v 1 4 -3
v 3 4 -3
v 4 4 -3
v 5 4 -3
v -5 4 -4
v -3 4 -4
v -2 4 -4
v -1 4 -4
v 1 4 -4
v -2 4 -5
v -1 4 -5
v 1 4 -5
v 4 4 -5
v 0 5 4
v 3 5 4
v -3 5 3
v -2 5 3
v 0 5 3
v 2 5 3
v -3 5 2
v -2 5 2
v -3 5 1
v -1 5 1
v 0 5 -0
v 1 5 -0
v -5 5 -1
v -3 5 -1
v -1 5 -1
v 0 5 -1
v 1 5 -1
v 2 5 -1
v -2 5 -2
v -1 5 -2
v -5 5 -3
v -3 5 -3
v -2 5 -3
v -1 5 -3
v 1 5 -3
v 3 5 -3
v -3 5 -4
v 1 5 -4
v -1 6 3
v 2 6 3
v 0 6 2
v 1 6 2
v 0 6 1
v 1 6 1
v 0 6 -0
v 1 6 -0
v -1 6 -1
v 0 6 -1
v 1 6 -1
v 2 6 -1
v -2 6 -2
v -1 6 -2
v -2 6 -3
v -1 6 -3
v 0 7 2
v 1 7 2
v 0 7 1
v 1 7 1

# faces
f 3/1/1 2/1/1 1/1/1
f 4/1/1 2/1/1 3/1/1
f 9/1/1 6/1/1 5/1/1
f 10/1/1 6/1/1 9/1/1
f 13/1/1 8/1/1 7/1/1
f 14/1/1 8/1/1 13/1/1
f 15/1/1 12/1/1 11/1/1
f 16/1/1 12/1/1 15/1/1
f 23/1/1 18/1/1 17/1/1
f 24/1/1 18/1/1 23/1/1
f 25/1/1 22/1/1 21/1/1
f 26/1/1 22/1/1 25/1/1
f 27/1/1 22/1/1 26/1/1
f 28/1/1 20/1/1 19/1/1
f 29/1/1 20/1/1 28/1/1
f 30/1/1 26/1/1 25/1/1
f 31/1/1 26/1/1 30/1/1
f 34/1/1 33/1/1 32/1/1
f 35/1/1 33/1/1 34/1/1
f 42/1/1 39/1/1 38/1/1
f 43/1/1 39/1/1 42/1/1
f 45/1/1 41/1/1 40/1/1
f 46/1/1 41/1/1 45/1/1
f 47/1/1 37/1/1 36/1/1
f 48/1/1 37/1/1 47/1/1
f 50/1/1 45/1/1 44/1/1
f 51/1/1 45/1/1 50/1/1
f 52/1/1 45/1/1 51/1/1
f 53/1/1 50/1/1 49/1/1
f 53/1/1 51/1/1 50/1/1
f 54/1/1 51/1/1 53/1/1
f 55/1/1 51/1/1 54/1/1
f 56/1/1 51/1/1 55/1/1
f 57/1/1 55/1/1 54/1/1
f 58/1/1 55/1/1 57/1/1
f 61/1/1 60/1/1 59/1/1
f 62/1/1 60/1/1 61/1/1
f 64/1/1 62/1/1 61/1/1
f 64/1/1 63/1/1 62/1/1
f 65/1/1 63/1/1 64/1/1
f 68/1/1 67/1/1 66/1/1
f 69/1/1 67/1/1 68/1/1
f 76/1/1 71/1/1 70/1/1
f 77/1/1 71/1/1 76/1/1
f 78/1/1 73/1/1 72/1/1
f 79/1/1 73/1/1 78/1/1
f 80/1/1 75/1/1 74/1/1
f 81/1/1 75/1/1 80/1/1
f 84/1/1 83/1/1 82/1/1
f 85/1/1 83/1/1 84/1/1
f 88/1/1 87/1/1 86/1/1
f 89/1/1 87/1/1 88/1/1
f 92/1/1 91/1/1 90/1/1
f 93/1/1 91/1/1 92/1/1
f 96/1/1 95/1/1 94/1/1
f 98/1/1 96/1/1 94/1/1
f 98/1/1 97/1/1 96/1/1
f 99/1/1 97/1/1 98/1/1
f 102/1/1 101/1/1 100/1/1
f 103/1/1 101/1/1 102/1/1
f 106/1/1 105/1/1 104/1/1
f 107/1/1 105/1/1 106/1/1
f 110/1/1 109/1/1 108/1/1
f 111/1/1 109/1/1 110/1/1
f 114/1/1 113/1/1 112/1/1
f 115/1/1 113/1/1 114/1/1
f 118/1/1 117/1/1 116/1/1
f 119/1/1 117/1/1 118/1/1
f 122/1/1 121/1/1 120/1/1
f 123/1/1 121/1/1 122/1/1
f 126/1/1 125/1/1 124/1/1
f 127/1/1 125/1/1 126/1/1
f 128/1/2 129/1/2 130/1/2
f 130/1/2 129/1/2 131/1/2
f 132/1/2 133/1/2 134/1/2
f 134/1/2 133/1/2 135/1/2
f 136/1/2 137/1/2 138/1/2
f 138/1/2 137/1/2 139/1/2
f 140/1/2 141/1/2 142/1/2
f 142/1/2 141/1/2 143/1/2
f 144/1/2 145/1/2 146/1/2
f 146/1/2 145/1/2 147/1/2
f 148/1/2 149/1/2 150/1/2
f 150/1/2 149/1/2 151/1/2
f 152/1/2 153/1/2 154/1/2
f 154/1/2 153/1/2 155/1/2
f 156/1/2 157/1/2 158/1/2
f 158/1/2 157/1/2 159/1/2
f 160/1/2 161/1/2 162/1/2
f 162/1/2 161/1/2 163/1/2
f 164/1/2 165/1/2 166/1/2
f 166/1/2 165/1/2 167/1/2
f 168/1/2 169/1/2 170/1/2
f 170/1/2 169/1/2 171/1/2
f 174/1/2 175/1/2 176/1/2
f 176/1/2 175/1/2 177/1/2
f 172/1/2 173/1/2 179/1/2
f 179/1/2 173/1/2 180/1/2
f 177/1/2 178/1/2 181/1/2
f 176/1/2 177/1/2 181/1/2
f 176/1/2 181/1/2 183/1/2
f 181/1/2 182/1/2 183/1/2
f 183/1/2 182/1/2 184/1/2
f 185/1/2 186/1/2 189/1/2
f 189/1/2 186/1/2 190/1/2
f 187/1/2 188/1/2 191/1/2
f 191/1/2 188/1/2 192/1/2
f 193/1/2 194/1/2 195/1/2
f 195/1/2 194/1/2 196/1/2
f 197/1/2 198/1/2 199/1/2
f 199/1/2 198/1/2 200/1/2
f 201/1/2 202/1/2 205/1/2
f 205/1/2 202/1/2 206/1/2
f 203/1/2 204/1/2 208/1/2
f 208/1/2 204/1/2 209/1/2
f 209/1/2 204/1/2 210/1/2
f 207/1/2 208/1/2 211/1/2
f 208/1/2 209/1/2 211/1/2
f 211/1/2 209/1/2 212/1/2
f 207/1/2 211/1/2 213/1/2
f 213/1/2 211/1/2 214/1/2
f 215/1/2 216/1/2 219/1/2
f 219/1/2 216/1/2 220/1/2
f 217/1/2 218/1/2 221/1/2
f 221/1/2 218/1/2 222/1/2
f 222/1/2 218/1/2 223/1/2
f 223/1/2 218/1/2 224/1/2
f 222/1/2 223/1/2 225/1/2
f 225/1/2 223/1/2 226/1/2
f 227/1/2 228/1/2 231/1/2
f 231/1/2 228/1/2 232/1/2
f 229/1/2 230/1/2 233/1/2
f 233/1/2 230/1/2 234/1/2
f 235/1/2 236/1/2 237/1/2
f 237/1/2 236/1/2 238/1/2
f 241/1/3 240/1/3 239/1/3
f 243/1/3 241/1/3 239/1/3
f 243/1/3 242/1/3 241/1/3
f 244/1/3 242/1/3 243/1/3
f 245/1/3 243/1/3 239/1/3
f 246/1/3 243/1/3 245/1/3
f 249/1/3 248/1/3 247/1/3
f 250/1/3 248/1/3 249/1/3
f 253/1/3 252/1/3 251/1/3
f 254/1/3 252/1/3 253/1/3
f 257/1/3 256/1/3 255/1/3
f 258/1/3 256/1/3 257/1/3
f 259/1/3 257/1/3 255/1/3
f 260/1/3 257/1/3 259/1/3
f 263/1/3 262/1/3 261/1/3
f 264/1/3 262/1/3 263/1/3
f 267/1/3 266/1/3 265/1/3
f 268/1/3 266/1/3 267/1/3
f 271/1/3 270/1/3 269/1/3
f 272/1/3 270/1/3 271/1/3
f 275/1/3 274/1/3 273/1/3
f 276/1/3 274/1/3 275/1/3
f 280/1/3 278/1/3 277/1/3
f 281/1/3 280/1/3 279/1/3
f 282/1/3 278/1/3 280/1/3
f 282/1/3 280/1/3 281/1/3
f 283/1/3 278/1/3 282/1/3
f 286/1/3 285/1/3 284/1/3
f 287/1/3 285/1/3 286/1/3
f 290/1/3 289/1/3 288/1/3
f 291/1/3 289/1/3 290/1/3
f 294/1/3 293/1/3 292/1/3
f 296/1/3 294/1/3 292/1/3
f 296/1/3 295/1/3 294/1/3
f 297/1/3 295/1/3 296/1/3
f 298/1/3 296/1/3 292/1/3
f 300/1/3 298/1/3 292/1/3
f 300/1/3 299/1/3 298/1/3
f 301/1/3 299/1/3 300/1/3
f 302/1/3 299/1/3 301/1/3
f 303/1/3 299/1/3 302/1/3
f 306/1/3 305/1/3 304/1/3
f 307/1/3 305/1/3 306/1/3
f 310/1/3 309/1/3 308/1/3
f 311/1/3 309/1/3 310/1/3
f 314/1/3 313/1/3 312/1/3
f 315/1/3 313/1/3 314/1/3
f 318/1/3 317/1/3 316/1/3
f 319/1/3 317/1/3 318/1/3
f 323/1/3 321/1/3 320/1/3
f 323/1/3 322/1/3 321/1/3
f 324/1/3 322/1/3 323/1/3
f 325/1/3 322/1/3 324/1/3
f 326/1/3 322/1/3 325/1/3
f 329/1/3 328/1/3 327/1/3
f 330/1/3 328/1/3 329/1/3
f 333/1/3 332/1/3 331/1/3
f 334/1/3 332/1/3 333/1/3
f 337/1/3 336/1/3 335/1/3
f 338/1/3 336/1/3 337/1/3
f 342/1/3 340/1/3 339/1/3
f 343/1/3 342/1/3 341/1/3
f 344/1/3 340/1/3 342/1/3
f 344/1/3 342/1/3 343/1/3
f 347/1/3 346/1/3 345/1/3
f 348/1/3 346/1/3 347/1/3
f 349/1/4 350/1/4 351/1/4
f 351/1/4 350/1/4 352/1/4
f 353/1/4 354/1/4 355/1/4
f 355/1/4 354/1/4 356/1/4
f 357/1/4 358/1/4 359/1/4
f 359/1/4 358/1/4 360/1/4
f 360/1/4 358/1/4 361/1/4
f 361/1/4 358/1/4 362/1/4
f 363/1/4 364/1/4 365/1/4
f 365/1/4 364/1/4 366/1/4
f 367/1/4 368/1/4 369/1/4
f 369/1/4 368/1/4 370/1/4
f 371/1/4 372/1/4 373/1/4
f 373/1/4 372/1/4 374/1/4
f 375/1/4 376/1/4 377/1/4
f 377/1/4 376/1/4 378/1/4
f 379/1/4 380/1/4 381/1/4
f 381/1/4 380/1/4 382/1/4
f 383/1/4 384/1/4 385/1/4
f 385/1/4 384/1/4 386/1/4
f 387/1/4 388/1/4 389/1/4
f 389/1/4 388/1/4 390/1/4
f 391/1/4 392/1/4 393/1/4
f 393/1/4 392/1/4 394/1/4
f 395/1/4 396/1/4 397/1/4
f 397/1/4 396/1/4 398/1/4
f 399/1/4 400/1/4 401/1/4
f 401/1/4 400/1/4 402/1/4
f 403/1/4 404/1/4 405/1/4
f 405/1/4 404/1/4 406/1/4
f 407/1/4 408/1/4 409/1/4
f 409/1/4 408/1/4 410/1/4
f 411/1/4 412/1/4 413/1/4
f 411/1/4 413/1/4 415/1/4
f 413/1/4 414/1/4 415/1/4
f 415/1/4 414/1/4 416/1/4
f 416/1/4 414/1/4 418/1/4
f 417/1/4 418/1/4 419/1/4
f 418/1/4 414/1/4 420/1/4
f 419/1/4 418/1/4 420/1/4
f 420/1/4 414/1/4 421/1/4
f 422/1/4 423/1/4 424/1/4
f 424/1/4 423/1/4 425/1/4
f 426/1/4 427/1/4 428/1/4
f 428/1/4 427/1/4 429/1/4
f 430/1/4 431/1/4 432/1/4
f 432/1/4 431/1/4 433/1/4
f 433/1/4 434/1/4 435/1/4
f 435/1/4 434/1/4 436/1/4
f 437/1/4 438/1/4 439/1/4
f 439/1/4 438/1/4 440/1/4
f 441/1/4 442/1/4 444/1/4
f 443/1/4 444/1/4 445/1/4
f 445/1/4 444/1/4 446/1/4
f 444/1/4 442/1/4 447/1/4
f 446/1/4 444/1/4 447/1/4
f 447/1/4 442/1/4 448/1/4
f 446/1/4 447/1/4 449/1/4
f 449/1/4 447/1/4 450/1/4
f 451/1/4 452/1/4 453/1/4
f 453/1/4 452/1/4 454/1/4
f 455/1/4 456/1/4 457/1/4
f 457/1/4 456/1/4 458/1/4
f 459/1/4 460/1/4 461/1/4
f 459/1/4 461/1/4 463/1/4
f 461/1/4 462/1/4 463/1/4
f 463/1/4 462/1/4 464/1/4
f 465/1/4 466/1/4 467/1/4
f 467/1/4 466/1/4 468/1/4
f 469/1/4 470/1/4 471/1/4
f 471/1/4 470/1/4 472/1/4
f 473/1/4 474/1/4 475/1/4
f 475/1/4 474/1/4 476/1/4
f 480/1/5 478/1/5 477/1/5
f 481/1/5 478/1/5 480/1/5
f 484/1/5 480/1/5 479/1/5
f 484/1/5 482/1/5 481/1/5
f 484/1/5 481/1/5 480/1/5
f 485/1/5 482/1/5 484/1/5
f 487/1/5 484/1/5 483/1/5
f 487/1/5 486/1/5 485/1/5
f 487/1/5 485/1/5 484/1/5
f 488/1/5 486/1/5 487/1/5
f 489/1/5 486/1/5 488/1/5
f 490/1/5 486/1/5 489/1/5
f 491/1/5 489/1/5 488/1/5
f 492/1/5 489/1/5 491/1/5
f 493/1/5 489/1/5 492/1/5
f 494/1/5 489/1/5 493/1/5
f 495/1/5 493/1/5 492/1/5
f 496/1/5 493/1/5 495/1/5
f 497/1/6 498/1/6 502/1/6
f 502/1/6 498/1/6 503/1/6
f 499/1/6 500/1/6 504/1/6
f 504/1/6 500/1/6 505/1/6
f 502/1/6 503/1/6 507/1/6
f 505/1/6 506/1/6 507/1/6
f 504/1/6 505/1/6 507/1/6
f 503/1/6 504/1/6 507/1/6
f 501/1/6 502/1/6 507/1/6
f 507/1/6 506/1/6 508/1/6
f 501/1/6 507/1/6 509/1/6
f 509/1/6 507/1/6 510/1/6
f 501/1/6 509/1/6 512/1/6
f 508/1/6 506/1/6 513/1/6
f 513/1/6 506/1/6 514/1/6
f 514/1/6 506/1/6 515/1/6
f 511/1/6 512/1/6 517/1/6
f 512/1/6 509/1/6 517/1/6
f 511/1/6 517/1/6 519/1/6
f 517/1/6 518/1/6 519/1/6
f 519/1/6 518/1/6 520/1/6
f 511/1/6 519/1/6 521/1/6
f 520/1/6 518/1/6 522/1/6
f 522/1/6 518/1/6 523/1/6
f 515/1/6 516/1/6 525/1/6
f 514/1/6 515/1/6 525/1/6
f 521/1/6 522/1/6 526/1/6
f 511/1/6 521/1/6 526/1/6
f 526/1/6 522/1/6 527/1/6
f 527/1/6 522/1/6 528/1/6
f 524/1/6 525/1/6 532/1/6
f 525/1/6 516/1/6 532/1/6
f 532/1/6 516/1/6 533/1/6
f 528/1/6 529/1/6 534/1/6
f 527/1/6 528/1/6 534/1/6
f 534/1/6 529/1/6 535/1/6
f 535/1/6 529/1/6 536/1/6
f 530/1/6 531/1/6 537/1/6
f 537/1/6 531/1/6 538/1/6
f 524/1/6 532/1/6 539/1/6
f 539/1/6 532/1/6 540/1/6
f 540/1/6 532/1/6 541/1/6
f 535/1/6 536/1/6 542/1/6
f 537/1/6 538/1/6 542/1/6
f 539/1/6 540/1/6 542/1/6
f 538/1/6 539/1/6 542/1/6
f 536/1/6 537/1/6 542/1/6
f 542/1/6 540/1/6 543/1/6
f 544/1/6 545/1/6 546/1/6
f 546/1/6 545/1/6 547/1/6
f 548/1/6 549/1/6 550/1/6
f 550/1/6 549/1/6 551/1/6
f 551/1/6 549/1/6 552/1/6
f 552/1/6 549/1/6 553/1/6
f 551/1/6 552/1/6 554/1/6
f 554/1/6 552/1/6 555/1/6
f 553/1/6 549/1/6 556/1/6
f 556/1/6 549/1/6 557/1/6
f 557/1/6 558/1/6 561/1/6
f 555/1/6 556/1/6 561/1/6
f 556/1/6 557/1/6 561/1/6
f 561/1/6 558/1/6 562/1/6
f 562/1/6 558/1/6 565/1/6
f 565/1/6 558/1/6 566/1/6
f 563/1/6 564/1/6 567/1/6
f 567/1/6 564/1/6 568/1/6
f 559/1/6 560/1/6 569/1/6
f 569/1/6 560/1/6 570/1/6
f 562/1/6 565/1/6 571/1/6
f 571/1/6 572/1/6 573/1/6
f 562/1/6 571/1/6 573/1/6
f 573/1/6 572/1/6 574/1/6
f 574/1/6 572/1/6 577/1/6
f 577/1/6 572/1/6 578/1/6
f 575/1/6 576/1/6 579/1/6
f 579/1/6 576/1/6 580/1/6
f 580/1/6 581/1/6 584/1/6
f 584/1/6 581/1/6 585/1/6
f 582/1/6 583/1/6 586/1/6
f 586/1/6 583/1/6 587/1/6
f 588/1/6 589/1/6 591/1/6
f 591/1/6 589/1/6 592/1/6
f 590/1/6 591/1/6 596/1/6
f 591/1/6 592/1/6 596/1/6
f 592/1/6 593/1/6 596/1/6
f 596/1/6 593/1/6 597/1/6
f 594/1/6 595/1/6 598/1/6
f 598/1/6 595/1/6 599/1/6
f 590/1/6 596/1/6 600/1/6
f 600/1/6 596/1/6 601/1/6
f 601/1/6 596/1/6 602/1/6
f 605/1/6 606/1/6 609/1/6
f 609/1/6 606/1/6 610/1/6
f 607/1/6 608/1/6 611/1/6
f 611/1/6 608/1/6 612/1/6
f 603/1/6 604/1/6 613/1/6
f 613/1/6 604/1/6 614/1/6
f 607/1/6 611/1/6 615/1/6
f 615/1/6 611/1/6 616/1/6
f 619/1/6 620/1/6 623/1/6
f 623/1/6 620/1/6 624/1/6
f 624/1/6 620/1/6 625/1/6
f 621/1/6 622/1/6 626/1/6
f 626/1/6 622/1/6 627/1/6
f 617/1/6 618/1/6 629/1/6
f 629/1/6 618/1/6 630/1/6
f 627/1/6 628/1/6 631/1/6
f 624/1/6 625/1/6 631/1/6
f 626/1/6 627/1/6 631/1/6
f 625/1/6 626/1/6 631/1/6
f 631/1/6 628/1/6 632/1/6
f 633/1/6 634/1/6 637/1/6
f 635/1/6 636/1/6 638/1/6
f 633/1/6 637/1/6 639/1/6
f 637/1/6 638/1/6 639/1/6
f 638/1/6 636/1/6 640/1/6
f 639/1/6 638/1/6 640/1/6
f 633/1/6 639/1/6 642/1/6
f 641/1/6 642/1/6 643/1/6
f 642/1/6 639/1/6 644/1/6
f 643/1/6 642/1/6 644/1/6
f 645/1/6 646/1/6 650/1/6
f 650/1/6 646/1/6 651/1/6
f 651/1/6 646/1/6 652/1/6
f 647/1/6 648/1/6 653/1/6
f 653/1/6 648/1/6 654/1/6
f 649/1/6 650/1/6 657/1/6
f 650/1/6 651/1/6 657/1/6
f 655/1/6 656/1/6 658/1/6
f 658/1/6 656/1/6 659/1/6
f 657/1/6 651/1/6 660/1/6
f 660/1/6 651/1/6 661/1/6
f 662/1/6 663/1/6 666/1/6
f 666/1/6 663/1/6 667/1/6
f 664/1/6 665/1/6 668/1/6
f 668/1/6 665/1/6 669/1/6
f 670/1/6 671/1/6 675/1/6
f 675/1/6 671/1/6 676/1/6
f 672/1/6 673/1/6 677/1/6
f 677/1/6 673/1/6 678/1/6
f 667/1/6 663/1/6 679/1/6
f 677/1/6 678/1/6 680/1/6
f 678/1/6 679/1/6 680/1/6
f 675/1/6 676/1/6 680/1/6
f 674/1/6 675/1/6 680/1/6
f 676/1/6 677/1/6 680/1/6
f 680/1/6 679/1/6 681/1/6
f 674/1/6 680/1/6 682/1/6
f 682/1/6 680/1/6 683/1/6
f 683/1/6 680/1/6 684/1/6
f 681/1/6 679/1/6 685/1/6
f 685/1/6 679/1/6 686/1/6
f 679/1/6 663/1/6 687/1/6
f 686/1/6 679/1/6 687/1/6
f 685/1/6 686/1/6 688/1/6
f 683/1/6 684/1/6 688/1/6
f 684/1/6 685/1/6 688/1/6
f 688/1/6 686/1/6 689/1/6
f 690/1/6 691/1/6 692/1/6
f 692/1/6 691/1/6 693/1/6
f 690/1/6 692/1/6 694/1/6
f 693/1/6 691/1/6 695/1/6
f 690/1/6 694/1/6 696/1/6
f 694/1/6 695/1/6 696/1/6
f 695/1/6 691/1/6 697/1/6
f 696/1/6 695/1/6 697/1/6
f 690/1/6 696/1/6 698/1/6
f 698/1/6 696/1/6 699/1/6
f 697/1/6 691/1/6 700/1/6
f 700/1/6 691/1/6 701/1/6
f 702/1/6 703/1/6 704/1/6
f 704/1/6 703/1/6 705/1/6
f 706/1/6 707/1/6 708/1/6
f 708/1/6 707/1/6 709/1/6
